<svg xmlns="http://www.w3.org/2000/svg" width="96" height="96" viewBox="0 0 96 96">
    <path fill="#fff" fill-rule="nonzero" d="M62.514 55.14l-7.72 13.272h-15.44L31.633 55.14l7.721-13.271h15.44l7.72 13.271zm-21.18 9.867h11.48l5.739-9.867-5.74-9.866H41.335l-5.74 9.866 5.74 9.867zM29.41 58.212l7.683 13.21-2.07 4.155h1.466v3.405h-3.602v-2.626l-1.672-.82 1.99-3.99-5.776-9.93H15.95l-2.82 4.847.346.806-3.144 1.36-1.425-3.31 1.223-.507 3.839-6.6h15.44zm31.508-23.27l-.616-3.346 3.464-.587.576 3.357-3.424.575zm-28.38-6.88l-2.036 2.924-2.828-1.928 2.05-2.943 2.814 1.947zm17.04-8.579l-.468 3.374-3.556-.484.462-3.373 3.563.483zM29.476 33.247l-.84 3.467-3.336-.797.841-3.467 3.335.797zm13.573-10.752l-3.485.805-.793-3.314 3.515-.812.763 3.32zm-5.773 1.792l-2.961 2.02-1.942-2.807 2.962-2.018 1.941 2.805zm24.2 3.23l-2.646 2.167-2.292-2.709 2.607-2.212 2.332 2.753zm-5.19-5.11L54.6 25.375l-3.123-1.726 1.65-2.984 3.158 1.742zM25.2 40.183l-.065-.546.04-.005-.002-.04.555-.026 2.813-.333.203 1.691-1.697.201 1.7-.177.243 1.834-1.944.133-1.715.078-.13-2.81zm46.174-8.67l-.524 3.364-3.543-.524.485-3.369 3.582.53zM86.576 53.21l-.569-3.51 3.384-.56.576 3.55-3.39.52zm-2.331-7.86l-.817-1.498 3.02-1.619.91 1.68.784 1.515-3.053 1.554-.844-1.632zm-5.886-11.06l-1.536 3.046-3.224-1.61 1.551-3.038 3.209 1.602zm-55.725 9.37L19.38 45.15l-1.452-3.085 3.286-1.504 1.42 3.1zm61.501-4.554l-2.424 2.406-2.548-2.484 2.384-2.45 2.588 2.528zm-16.533 36.15l3.553-.588.563 3.357-3.552.589-.564-3.359zm-20.706 3.726v-3.405h3.602v3.405h-3.602zm7.005 0v-3.405h3.602v3.405h-3.602zm21.636-6.069l1.508-.81 1.631 2.997-1.692.903-1.526.778-1.567-3.03 1.646-.838zm11.067-16.817l3.396.481-.535 3.555-3.388-.52.527-3.516zm-1.941 7.357l.564-1.11 3.06 1.536-1.615 3.186-2.29-1.138-1.696.958-3.808-6.63H67.406l-5.79 9.954 2.162 4.655-1.558.712h2.287v3.405h-3.6v-2.803l-.244.111-2.907-6.255 7.669-13.185h15.448l3.79 6.604zm-5.265 6.941l2.506-2.53 2.465 2.37-2.545 2.567-2.426-2.407zM11.43 57.746l.064 3.554-3.43.079L8 57.785l3.43-.04zm1.178 14.222l2.425-2.407 2.548 2.507-2.406 2.428-2.567-2.528zm4.518-25.21l-2.459 2.61-2.505-2.326 2.458-2.61 2.506 2.326zm22.766 32.224v-3.405h3.602v3.405h-3.602zM13.197 51.707l-1.28 3.314-3.214-1.196 1.301-3.361 3.193 1.243zm5.35 25.04l1.338-3.135 3.307 1.367-1.302 3.15-3.342-1.382zm7.32 2.212l.04-3.405 3.601.042-.04 3.404-3.6-.041z"/>
</svg>
