<svg xmlns="http://www.w3.org/2000/svg" width="96" height="96" viewBox="0 0 96 96">
    <path fill="#fff" fill-rule="nonzero" d="M58.85 21l-1.183 2.085V21.05h-3.793v3.764h2.812l-5.551 9.784 7.716 13.599h11.007l-.34.602 3.204 1.88 1.407-2.482h.155L82 34.597 74.284 21H58.851zm-3.33 13.598l5.524-9.731h11.048l5.522 9.73-5.522 9.736H61.044l-5.523-9.735zM48.965 21.05v3.765H46.49l-1.308 1.915-3.266-2.31 2.325-3.4.809.572v-.542h3.915zm-9.513 14.094l-2.364 3.472-3.271-2.305 2.364-3.47 3.27 2.303zm1.685-2.47l-3.27-2.305 2.364-3.471 3.27 2.304-2.364 3.472zm-6.205 9.106l.413.725-3.447 2.02-1.67-2.947 1.91-2.795 3.263 2.31-.469.687zm3.953 6.973l-3.448 2.014-2.066-3.66 3.449-2.015 2.065 3.661zm1.467 2.58l2.08 3.654-3.442 2.027-2.079-3.654 3.441-2.027zm4.95 11.115H42.07L40.455 59.6l3.443-2.02.468.822h.936v4.047zm2.327.001v-4.047h4.135v4.047h-4.135zm6.465 0v-4.047h4.135v4.047h-4.135zM36.227 24.814V21.05h3.915v3.764h-3.915zm-5.784 0l-.439.773-3.204-1.88 1.506-2.657h3.012v3.764h-.875zm-9.175 16.173l-1.942 3.408-3.202-1.885 1.942-3.41 3.202 1.887zm3.556-6.276l-1.936 3.415-3.206-1.88 1.936-3.414 3.206 1.88zm3.558-6.269l-1.935 3.415-3.205-1.88 1.934-3.415 3.206 1.88zM17.27 48.026l.438.773-3.205 1.88L13 48.027l1.503-2.656 3.205 1.881-.438.775zm2.062 3.629l1.935 3.414-3.206 1.88-1.935-3.415 3.206-1.88zm3.558 6.269l1.934 3.415-3.206 1.88-1.934-3.416 3.206-1.88zm3.552 6.27l1.94 3.409-3.2 1.885-1.941-3.41 3.201-1.885zm3.562 6.268l.439.773h.875V75h-3.012L26.8 72.343l3.204-1.88zM48.791 75v-3.764h3.875v3.764H48.79zm-7.116 0v-3.764h3.874v3.764h-3.874zm-7.113 0v-3.764h3.873v3.764h-3.873zm22.223-3.763l.437-.773 3.204 1.88L58.921 75h-3.013v-3.764h.877zm9.174-16.173l1.94-3.408 3.203 1.885-1.942 3.41-3.201-1.887zm-7.115 12.545l1.935-3.415 3.206 1.88-1.935 3.413-3.206-1.878zm5.221-9.206l.271-.478 3.206 1.88-1.934 3.415-1.313-.77h-3.74v-4.047h3.51z"/>
</svg>
